<svg width="63" height="62" viewBox="0 0 63 62" fill="none" xmlns="http://www.w3.org/2000/svg">
<path fill-rule="evenodd" clip-rule="evenodd" d="M17.202 3.03713C5.952 8.65813 0 18.3311 0 30.9901C0 36.9091 0.531 39.6321 2.522 43.9081C4.369 47.8771 5.341 49.0291 6.154 48.2161C6.967 47.4031 6.77 46.0881 5.42 43.2981C2.799 37.8841 2.351 27.3991 4.469 21.0251C6.768 14.1021 14.092 6.77813 21.015 4.47913C27.469 2.33513 37.877 2.81113 43.447 5.50513C48.482 7.94113 53.984 13.4221 56.513 18.5231C59.245 24.0331 59.287 37.8661 56.588 43.2981C55.203 46.0881 54.993 47.4031 55.806 48.2161C56.619 49.0291 57.591 47.8771 59.438 43.9081C63.243 35.7341 63.049 25.4481 58.933 17.2121C53.299 5.93613 43.653 0.0161311 30.89 0.000131081C24.419 -0.00886892 22.4 0.440131 17.202 3.03713ZM23.057 18.0671C20.468 20.6561 19.98 21.9121 19.98 25.9901C19.98 30.0681 20.468 31.3241 23.057 33.9131C25.646 36.5021 26.902 36.9901 30.98 36.9901C37.912 36.9901 41.98 32.9221 41.98 25.9901C41.98 21.9121 41.492 20.6561 38.903 18.0671C36.314 15.4781 35.058 14.9901 30.98 14.9901C26.902 14.9901 25.646 15.4781 23.057 18.0671ZM36.666 20.1641C41.823 25.0091 38.22 33.9901 31.12 33.9901C26.34 33.9901 22.98 30.7461 22.98 26.1301C22.98 18.8601 31.379 15.1981 36.666 20.1641ZM24.714 44.0311C19.533 45.3171 13.93 48.3131 11.164 51.2781L8.848 53.7601L11.841 55.8911C18.07 60.3261 23.19 61.9461 30.98 61.9461C38.773 61.9461 43.89 60.3261 50.125 55.8871L53.125 53.7511L50.435 50.9431C45.073 45.3471 32.752 42.0351 24.714 44.0311ZM42.98 49.3341C45.455 50.5851 47.48 52.2571 47.48 53.0491C47.48 56.0281 40.014 58.4901 30.98 58.4901C22.432 58.4901 15.13 56.2481 14.238 53.3501C13.775 51.8491 19.645 48.2761 24.569 47.0611C30.042 45.7101 37.677 46.6531 42.98 49.3341Z" fill="black"/>
</svg>
